<svg id="Layer_2" data-name="Layer 2" xmlns="http://www.w3.org/2000/svg" viewBox="0 0 331.22 128.45"><defs><style>.cls-1{fill:#fff;}</style></defs><path class="cls-1" d="M63.28,322.16H39.1l3.82-17.59h68.43l-3.82,17.59h-24L62.53,421H42.31Z" transform="translate(-39.1 -297.57)"/><path class="cls-1" d="M108.94,389.22c.13,7.52,2.68,17.33,13.91,17.33,7.69,0,12.77-4.44,14.29-12.43,1.65-8.65-.73-15.87-13.35-25.83-17.6-13.88-23.7-24.35-21-39.74,2.58-14.81,13-26,31.79-26,29.42,0,31.82,23.24,31.14,32H146.39c0-4.62-1-15.58-12.41-15.58-7,0-10.95,4.22-12.07,10.8-1.17,6.92.84,11.91,14.07,21.94,20.31,15.48,24.83,27.46,20.93,45.15-3.14,14.38-14.06,26.09-34,26.09-29.35,0-34.44-19.89-33.3-33.71Z" transform="translate(-39.1 -297.57)"/><path class="cls-1" d="M175.15,389.22c.13,7.52,2.69,17.33,13.91,17.33,7.7,0,12.78-4.44,14.3-12.43,1.65-8.65-.73-15.87-13.36-25.83-17.6-13.88-23.7-24.35-21-39.74,2.58-14.81,13-26,31.79-26,29.42,0,31.83,23.24,31.15,32H212.6c0-4.62-1-15.58-12.41-15.58-7,0-10.95,4.22-12.06,10.8-1.18,6.92.83,11.91,14.07,21.94,20.3,15.48,24.82,27.46,20.93,45.15-3.14,14.38-14.07,26.09-34,26.09-29.34,0-34.43-19.89-33.29-33.71Z" transform="translate(-39.1 -297.57)"/><path class="cls-1" d="M306.1,297.57a64.23,64.23,0,1,0,64.23,64.22A64.29,64.29,0,0,0,306.1,297.57Zm-3.76,31.52a87.09,87.09,0,0,1-16.8-2.36c.86-2,1.8-4,2.81-5.87,4.15-7.65,9.24-13,14-15Zm0,7.54V358H278.83a95.16,95.16,0,0,1,4.11-24.19A96,96,0,0,0,302.34,336.63Zm0,28.93V387a95.25,95.25,0,0,0-19.4,2.79,95.24,95.24,0,0,1-4.11-24.19Zm0,28.93v23.2c-4.75-1.95-9.84-7.31-14-15-1-1.86-2-3.83-2.81-5.88A87.88,87.88,0,0,1,302.34,394.49Zm7.53,0a88,88,0,0,1,16.8,2.36c-.87,2-1.8,4-2.81,5.88-4.15,7.65-9.25,13-14,15Zm0-7.53v-21.4h23.5a94.8,94.8,0,0,1-4.11,24.19A95.15,95.15,0,0,0,309.87,387Zm0-28.93v-21.4a95.85,95.85,0,0,0,19.39-2.79A94.72,94.72,0,0,1,333.37,358Zm0-28.94V305.9c4.74,1.94,9.84,7.31,14,15,1,1.86,1.94,3.83,2.81,5.87A87.2,87.2,0,0,1,309.87,329.09Zm20.6-11.82a56.36,56.36,0,0,0-6.09-9.15,56.81,56.81,0,0,1,20.07,11.95,72.11,72.11,0,0,1-10.5,4.55A75.29,75.29,0,0,0,330.47,317.27Zm-48.74,0a75.29,75.29,0,0,0-3.48,7.35,72.11,72.11,0,0,1-10.5-4.55,56.81,56.81,0,0,1,20.07-11.95A57.69,57.69,0,0,0,281.73,317.27Zm-6,14.42A101.31,101.31,0,0,0,271.3,358H249.53a56.49,56.49,0,0,1,12.87-32.32A77.7,77.7,0,0,0,275.7,331.69Zm-4.4,33.87a101.38,101.38,0,0,0,4.4,26.34,76.93,76.93,0,0,0-13.3,6,56.52,56.52,0,0,1-12.87-32.32ZM278.25,399a76.4,76.4,0,0,0,3.48,7.35,58.16,58.16,0,0,0,6.09,9.15,56.69,56.69,0,0,1-20.07-12A71,71,0,0,1,278.25,399Zm52.22,7.35A76.4,76.4,0,0,0,334,399a71,71,0,0,1,10.5,4.54,56.69,56.69,0,0,1-20.07,12A57.47,57.47,0,0,0,330.47,406.32Zm6-14.42a100.55,100.55,0,0,0,4.4-26.34h21.77a56.38,56.38,0,0,1-12.87,32.32A76.59,76.59,0,0,0,336.5,391.9ZM340.9,358a100.48,100.48,0,0,0-4.4-26.34,77.35,77.35,0,0,0,13.3-6A56.36,56.36,0,0,1,362.67,358Z" transform="translate(-39.1 -297.57)"/></svg>